<svg width="24" height="24" viewBox="0 0 24 24" fill="none" xmlns="http://www.w3.org/2000/svg">
<path d="M7 14C5.9 14 5 14.9 5 16C5 17.1 5.9 18 7 18C8.1 18 9 17.1 9 16C9 14.9 8.1 14 7 14ZM7 16C6.45 16 6 16.45 6 17C6 17.55 6.45 18 7 18C7.55 18 8 17.55 8 17C8 16.45 7.55 16 7 16Z" fill="white"/>
<path d="M19.83 6.83L17.17 4.17C16.42 3.42 15.16 3.42 14.41 4.17L9.41 9.17C8.66 9.92 8.66 11.18 9.41 11.93L12.07 14.59C12.82 15.34 14.08 15.34 14.83 14.59L19.83 9.59C20.58 8.84 20.58 7.58 19.83 6.83ZM14.12 13.88L11.46 11.22L16.46 6.22L19.12 8.88L14.12 13.88Z" fill="white"/>
<path d="M3 21H21V19H3V21Z" fill="white"/>
</svg>